<?xml version="1.0" encoding="UTF-8"?>
<svg xmlns="http://www.w3.org/2000/svg" version="1.1" viewBox="0 0 800 800">
  <!-- Generator: Adobe Illustrator 28.7.1, SVG Export Plug-In . SVG Version: 1.2.0 Build 142)  -->
  <g>
    <g id="Layer_1">
      <path d="M308.1,378.1c0,7.6,6.2,13.8,13.8,13.8s13.8-6.2,13.8-13.8-6.2-13.8-13.8-13.8-13.8,6.2-13.8,13.8Z"/>
      <path d="M313.8,378.1c0,4.4,3.7,8.1,8.1,8.1s8.1-3.7,8.1-8.1-3.7-8.1-8.1-8.1-8.1,3.1-8.1,8.1Z"/>
      <path d="M360,378.1c0,7.6,6.2,13.8,13.8,13.8s13.8-6.2,13.8-13.8-6.2-13.8-13.8-13.8-13.8,6.2-13.8,13.8Z"/>
      <path d="M365.6,378.1c0,4.4,3.7,8.1,8.1,8.1s8.1-3.7,8.1-8.1-3.7-8.1-8.1-8.1-8.1,3.1-8.1,8.1ZM426.2,391.9c-7.5,0-13.7-6.2-13.7-13.8s6.2-13.8,13.7-13.8,13.7,6.2,13.7,13.8-6.2,13.8-13.7,13.8Z"/>
      <path d="M417.5,378.1c0,4.4,3.7,8.1,8.1,8.1s8.1-3.7,8.1-8.1-3.7-8.1-8.1-8.1c-4.4-.6-8.1,3.1-8.1,8.1Z"/>
      <path d="M464.4,378.1c0,7.6,6.2,13.8,13.7,13.8s13.8-6.2,13.8-13.8-6.2-13.8-13.8-13.8-13.7,6.2-13.7,13.8Z"/>
      <path d="M470,378.1c0,4.4,3.7,8.1,8.1,8.1s8.1-3.7,8.1-8.1-3.7-8.1-8.1-8.1c-4.4-.6-8.1,3.1-8.1,8.1ZM513.1,688.7c-9.4,0-18.8-2.5-26.9-7.5-23.8-15-31.2-46.3-16.2-69.4,9.4-15,25.6-23.8,43.1-23.8s18.8,2.5,26.9,7.5c11.3,6.9,19.4,18.1,22.5,31.2s.6,26.9-6.2,38.1c-9.4,15-25,23.8-43.1,23.8ZM497.5,666.2c4.4-6.2,14.4-20.6,18.1-26.9,3.7-5.6,11.9-21.3,15.6-28.1l-.6-.6-1.2-.6c-4.4,6.2-14.4,20.6-18.1,26.9-3.7,5.6-11.9,21.3-15.6,28.1l.6.6,1.2.6Z"/>
      <path d="M537.5,600c-21.3-13.1-48.8-6.9-61.9,14.4s-6.9,48.8,14.4,61.9,48.8,6.9,61.9-14.4c13.1-20.6,6.9-48.8-14.4-61.9ZM499.4,673.1l-6.2-1.9-4.4-5s13.1-24.4,18.1-31.9,20.6-30,20.6-30l6.2,1.9,4.4,5s-13.1,24.4-18.1,31.9c-4.4,7.5-20.6,30-20.6,30ZM286.2,688.7c-7.5,0-14.4-1.2-20.6-4.4-12.5-5.6-21.9-15.6-26.3-28.1s-4.4-26.2,1.3-38.7c8.1-18.1,26.3-30,46.3-30s14.4,1.2,20.6,4.4c25.6,11.3,36.9,41.2,25,66.9-8.1,18.8-26.3,30-46.3,30ZM274.4,668.1c3.7-6.9,11.9-22.5,14.4-28.7,3.1-6.2,9.4-22.5,11.9-30l-.6-.6h-1.3c-3.7,6.9-11.9,22.5-14.4,28.7-3.1,6.2-9.4,22.5-11.9,30l1.3.6h.6Z"/>
      <path d="M305,597.5c-22.5-10-49.4,0-60,22.5-10,22.5,0,49.4,22.5,60,22.5,10,49.4,0,60-22.5,10.6-23.1.6-50-22.5-60h0ZM277.5,674.4l-6.2-1.2-5-4.4s10-25.6,13.8-33.8c3.7-8.1,16.9-32.5,16.9-32.5l6.2,1.2,5,4.4s-10,25.6-13.8,33.8c-4.4,8.1-16.9,32.5-16.9,32.5Z"/>
      <path d="M459.4,790c-4.4,0-8.1-3.7-8.1-8.1v-8.8h-102.5v8.8c0,4.4-3.7,8.1-8.1,8.1h-88.1c-4.4,0-8.1-3.7-8.1-8.1v-8.8h-63.1c-18.8,0-33.7-15-33.7-33.8V55.6c0-18.8,15-33.8,33.7-33.8h120.6v-3.7c0-4.4,3.7-8.1,8.1-8.1h180c4.4,0,8.1,3.8,8.1,8.1v3.1h120.6c18.8,0,33.8,15,33.8,33.7v683.1c0,18.8-15,33.8-33.8,33.8h-63.1v8.8c0,4.4-3.7,8.1-8.1,8.1h-88.1v1.2ZM182.5,706.3c0,15.6,13.1,28.7,28.7,28.7h376.9c15.6,0,28.7-13.1,28.7-28.7v-207.5H182.5v207.5ZM617.5,483.8V87.5c0-15.6-13.1-28.8-28.7-28.8H211.2c-15.6,0-28.8,13.1-28.8,28.8v395.6h435v.6Z"/>
    </g>
  </g>
</svg>