<?xml version="1.0" encoding="iso-8859-1"?>
<!-- Uploaded to: SVG Repo, www.svgrepo.com, Generator: SVG Repo Mixer Tools -->
<!DOCTYPE svg PUBLIC "-//W3C//DTD SVG 1.1//EN" "http://www.w3.org/Graphics/SVG/1.1/DTD/svg11.dtd">
<svg fill="#000000" height="800px" width="800px" version="1.1" id="Capa_1" xmlns="http://www.w3.org/2000/svg" xmlns:xlink="http://www.w3.org/1999/xlink" 
	 viewBox="0 0 60 60" xml:space="preserve">
<g>
	<path d="M16.5,42h14v-7h-14V42z M24.5,36h5v5h-5V36z M17.5,36h5v5h-5V36z"/>
	<path d="M40.5,42c1.654,0,3-1.346,3-3c0-0.462-0.113-0.894-0.301-1.285l-1.992,1.992l-1.414-1.414l1.992-1.992
		C41.394,36.114,40.962,36,40.5,36c-1.654,0-3,1.346-3,3S38.846,42,40.5,42z"/>
	<path d="M9.5,48v10.567c0,0.79,0.643,1.433,1.433,1.433h38.135c0.79,0,1.433-0.643,1.433-1.433V48H9.5z M32.5,54h-5
		c-0.553,0-1-0.447-1-1s0.447-1,1-1h5c0.553,0,1,0.447,1,1S33.053,54,32.5,54z"/>
	<path d="M50.5,46V0h-41v46H50.5z M40.5,34c2.757,0,5,2.243,5,5s-2.243,5-5,5s-5-2.243-5-5S37.743,34,40.5,34z M14.5,33h18v11h-18
		V33z"/>
</g>
</svg>